<svg width="24" height="24" viewBox="0 0 24 24" fill="none" xmlns="http://www.w3.org/2000/svg">
<path d="M5.536 2.11409C5.69777 2.02995 5.87939 1.99145 6.06138 2.00273C6.24337 2.01401 6.41886 2.07463 6.569 2.17809L19.569 11.1781C19.7018 11.2701 19.8104 11.393 19.8854 11.5361C19.9603 11.6793 19.9995 11.8385 19.9995 12.0001C19.9995 12.1617 19.9603 12.3209 19.8854 12.4641C19.8104 12.6072 19.7018 12.7301 19.569 12.8221L6.569 21.8221C6.41897 21.9259 6.24341 21.9867 6.06131 21.9979C5.87922 22.0091 5.69753 21.9702 5.53593 21.8856C5.37433 21.8009 5.23896 21.6736 5.1445 21.5176C5.05003 21.3615 5.00006 21.1825 5 21.0001L5 3.00009C4.99997 2.81756 5.0499 2.63849 5.14439 2.48231C5.23887 2.32613 5.3743 2.19879 5.536 2.11409Z" fill="#ADADAD"/>
</svg>
