<svg width="24" height="24" viewBox="0 0 24 24" fill="none" xmlns="http://www.w3.org/2000/svg">
<path d="M18.464 2.11385C18.3022 2.02971 18.1206 1.99121 17.9386 2.00249C17.7566 2.01376 17.5811 2.07438 17.431 2.17785L4.431 11.1779C4.29816 11.2699 4.18961 11.3927 4.11463 11.5359C4.03965 11.6791 4.00049 11.8382 4.00049 11.9999C4.00049 12.1615 4.03965 12.3206 4.11463 12.4638C4.18961 12.607 4.29816 12.7298 4.431 12.8219L17.431 21.8218C17.581 21.9257 17.7566 21.9864 17.9387 21.9976C18.1208 22.0088 18.3025 21.97 18.4641 21.8853C18.6257 21.8006 18.761 21.6734 18.8555 21.5173C18.95 21.3612 18.9999 21.1823 19 20.9998L19 2.99985C19 2.81731 18.9501 2.63825 18.8556 2.48207C18.7611 2.32589 18.6257 2.19855 18.464 2.11385Z" fill="#064DDB"/>
</svg>
