<svg width="24" height="24" viewBox="0 0 24 24" fill="none" xmlns="http://www.w3.org/2000/svg">
<path d="M5.536 2.11385C5.69777 2.02971 5.87939 1.99121 6.06138 2.00249C6.24337 2.01376 6.41886 2.07438 6.569 2.17785L19.569 11.1779C19.7018 11.2699 19.8104 11.3927 19.8854 11.5359C19.9603 11.6791 19.9995 11.8382 19.9995 11.9999C19.9995 12.1615 19.9603 12.3206 19.8854 12.4638C19.8104 12.607 19.7018 12.7298 19.569 12.8219L6.569 21.8218C6.41897 21.9257 6.24341 21.9864 6.06131 21.9976C5.87922 22.0088 5.69753 21.97 5.53593 21.8853C5.37433 21.8006 5.23896 21.6734 5.1445 21.5173C5.05003 21.3612 5.00006 21.1823 5 20.9998L5 2.99985C4.99997 2.81731 5.0499 2.63825 5.14439 2.48207C5.23887 2.32589 5.3743 2.19855 5.536 2.11385Z" fill="#064DDB"/>
</svg>
