<svg width="24" height="24" viewBox="0 0 24 24" fill="none" xmlns="http://www.w3.org/2000/svg">
<path d="M18.464 2.11409C18.3022 2.02995 18.1206 1.99145 17.9386 2.00273C17.7566 2.014 17.5811 2.07463 17.431 2.17809L4.431 11.1781C4.29816 11.2701 4.18961 11.393 4.11463 11.5361C4.03965 11.6793 4.00049 11.8385 4.00049 12.0001C4.00049 12.1617 4.03965 12.3209 4.11463 12.4641C4.18961 12.6072 4.29816 12.7301 4.431 12.8221L17.431 21.8221C17.581 21.9259 17.7566 21.9867 17.9387 21.9979C18.1208 22.0091 18.3025 21.9702 18.4641 21.8856C18.6257 21.8009 18.761 21.6736 18.8555 21.5176C18.95 21.3615 18.9999 21.1825 19 21.0001L19 3.00009C19 2.81756 18.9501 2.63849 18.8556 2.48231C18.7611 2.32613 18.6257 2.19879 18.464 2.11409Z" fill="#ADADAD"/>
</svg>
