<svg width="138" height="194" viewBox="0 0 138 194" fill="none" xmlns="http://www.w3.org/2000/svg">
<path d="M109.301 99.7057L115.302 92.3908H105.21L105.073 85.8887L107.664 81.0121L108.345 54.8656L108.755 47.1443L115.3 0L3.8759 14.4439L3.89715 50.9666L6.87636 52.9391L5.73983 58.2604L0.753906 64.6475L10.8146 90.9014L12.0302 96.5812H16.1768L19.6924 102.773L12.4817 118.811L13.6298 126.703L19.1077 129.347L8.98921 140.287L6.93039 142.982L9.89222 144.417L6.21454 150.46L8.06108 152.1L12.2231 153.479H17.9153L23.3161 149.948L32.3966 154.381V156.818L36.0743 159.714L36.1437 159.802C37.9575 162.08 40.0588 164.602 40.7438 165.264H45.8474L47.3564 163.493L68.155 163.92L71.9195 170.951L72.7319 179.148L80.1259 189.35V192.511L82.5513 194L111.072 144.816L128.664 135.197L138.001 123.682V121.108L109.301 99.7057Z" fill="#71C0C1"/>
</svg>
