<svg width="114" height="107" viewBox="0 0 114 107" fill="none" xmlns="http://www.w3.org/2000/svg">
<path d="M14.1042 21.4003L15.0992 25.6553L19.6638 32.9713L18.5117 42.8951L18.3506 43.1036C17.1333 44.6915 16.5044 45.342 16.144 45.6271C15.937 46.3445 15.6206 48.7303 15.427 50.7296L15.3944 51.0606L11.773 54.8085V61.2598L7.84673 69.6779L5.38323 70.447L2.86414 71.9546L0.830078 73.9041L3.2418 74.4666L12.6817 78.1782L15.567 87.681V91.0483L22.0449 100.746L22.5338 106.346L30.7084 102.04L38.5168 101.05L37.9685 93.3881L42.3721 93.2504V87.0019H46.4575V96.4014L50.8343 96.1163L51.4976 86.7034L57.1607 84.8878V86.9311L61.9516 88.0675L62.0513 88.1173C63.6598 88.9208 65.667 89.9673 66.0945 90.3921C66.3246 90.6216 66.7061 91.0023 67.9369 98.0257L70.4617 100.674L112.172 75.9914L113.883 75.4519L103.89 49.2603L109.234 42.3842L110.002 38.7721L107.272 36.9546L107.251 0.106445L74.4953 12.5097L14.9267 15.8807L11.4586 19.533L14.1042 21.4003Z" fill="#6DAFE8"/>
</svg>
